<svg width="168" height="36" viewBox="0 0 168 36" fill="none" xmlns="http://www.w3.org/2000/svg">
<g id="ps4_b" clip-path="url(#clip0_324_230)">
<g id="&#227;&#131;&#172;&#227;&#130;&#164;&#227;&#131;&#164;&#227;&#131;&#188; 2">
<g id="&#227;&#131;&#172;&#227;&#130;&#164;&#227;&#131;&#164;&#227;&#131;&#188; 1">
<path id="Vector" d="M17.7749 0.34375V32.994L25.1676 35.3438V7.95105C25.1676 6.67422 25.7363 5.80512 26.6644 6.11092C27.8661 6.4489 28.1022 7.62916 28.1022 8.91135V19.8448C32.7105 22.0712 36.3318 19.8448 36.3318 13.9757C36.3318 7.95105 34.1858 5.27937 27.9573 3.12808C24.6214 1.99896 21.2212 1.0692 17.7749 0.34375Z" fill="#FAF5F5" fill-opacity="0.7"/>
<path id="Vector_2" d="M26.5679 30.5691L38.4509 26.3362C39.7975 25.8534 40.0067 25.1667 38.9123 24.8072C37.4442 24.4709 35.9115 24.5508 34.4863 25.0379L26.5679 27.8276V23.4124L27.0239 23.2568C28.8135 22.6785 30.658 22.2866 32.5282 22.0873C35.994 21.7317 39.4955 22.1495 42.7803 23.3105C46.2674 24.3834 46.6591 26.0358 45.7739 27.1517C44.8887 28.2676 42.7159 29.0669 42.7159 29.0669L26.5679 34.8448V30.5691Z" fill="#FAF5F5" fill-opacity="0.7"/>
<path id="Vector_3" d="M4.2235 30.1184C0.645171 29.1098 0.0496774 27.0175 1.67521 25.8266C2.94499 25.0022 4.31525 24.3441 5.75247 23.8684L16.3426 20.113V24.4049L8.71921 27.1034C7.37264 27.5862 7.16878 28.2729 8.2632 28.627C9.73053 28.9676 11.264 28.8895 12.6892 28.4017L16.3426 27.0766V30.9231L15.6183 31.0412C11.8012 31.6562 7.89194 31.3397 4.2235 30.1184Z" fill="#FAF5F5" fill-opacity="0.7"/>
<path id="Vector_4" d="M41.981 33.5519C41.9795 33.3627 42.0156 33.1751 42.0875 33.0001C42.1594 32.825 42.2654 32.6661 42.3995 32.5326C42.532 32.3968 42.6906 32.2893 42.8658 32.2164C43.041 32.1436 43.2291 32.107 43.4188 32.1088C43.7993 32.1116 44.1633 32.264 44.4324 32.533C44.7014 32.802 44.8538 33.1661 44.8566 33.5466C44.8566 33.9279 44.7051 34.2936 44.4355 34.5632C44.1658 34.8328 43.8001 34.9843 43.4188 34.9843C43.0375 34.9843 42.6718 34.8328 42.4022 34.5632C42.1325 34.2936 41.981 33.9279 41.981 33.5466V33.5519ZM43.4188 35.2794C43.861 35.2548 44.277 35.0617 44.5813 34.74C44.8857 34.4182 45.0553 33.9921 45.0553 33.5492C45.0553 33.1063 44.8857 32.6803 44.5813 32.3585C44.277 32.0367 43.861 31.8437 43.4188 31.8191C43.1835 31.806 42.948 31.841 42.7267 31.922C42.5054 32.0031 42.3029 32.1284 42.1317 32.2903C41.9605 32.4523 41.8241 32.6474 41.7309 32.8639C41.6377 33.0804 41.5896 33.3136 41.5896 33.5492C41.5896 33.7849 41.6377 34.0181 41.7309 34.2346C41.8241 34.451 41.9605 34.6462 42.1317 34.8082C42.3029 34.9701 42.5054 35.0954 42.7267 35.1764C42.948 35.2575 43.1835 35.2925 43.4188 35.2794Z" fill="#FAF5F5" fill-opacity="0.7"/>
<path id="Vector_5" d="M43.8909 33.1174C43.8961 33.1583 43.891 33.1998 43.876 33.2383C43.861 33.2767 43.8366 33.3108 43.8051 33.3373C43.7282 33.3801 43.6408 33.4005 43.5529 33.3963H43.0164V32.8599H43.5851C43.6492 32.8577 43.7131 32.8687 43.7729 32.892C43.812 32.9144 43.8439 32.9475 43.8648 32.9874C43.8857 33.0274 43.8948 33.0725 43.8909 33.1174ZM44.2718 34.3566C44.2418 34.3367 44.2206 34.306 44.2128 34.2708C44.2128 34.2386 44.2128 34.1957 44.2128 34.1259V33.8792C44.2194 33.7886 44.1969 33.6984 44.1484 33.6217C44.116 33.5839 44.078 33.5513 44.0357 33.5251C44.0935 33.4914 44.1416 33.4434 44.1752 33.3856C44.2326 33.2982 44.2608 33.1949 44.2557 33.0905C44.2629 32.9921 44.2394 32.8939 44.1885 32.8093C44.1376 32.7248 44.0617 32.6581 43.9714 32.6184C43.8554 32.5725 43.7313 32.5506 43.6066 32.5541H42.6624V34.48H42.995V33.6914H43.5315C43.6022 33.6891 43.6728 33.6981 43.7407 33.7182C43.7757 33.7403 43.8041 33.7713 43.823 33.8081C43.8419 33.8449 43.8505 33.8862 43.848 33.9274V34.2332C43.848 34.303 43.848 34.3566 43.848 34.3835C43.8466 34.4085 43.8466 34.4335 43.848 34.4586H44.2718V34.3459" fill="#FAF5F5" fill-opacity="0.7"/>
<path id="Vector_6" d="M128.564 8.62701H114.459C110.372 8.62701 108.37 11.1485 108.37 14.4317V24.4049C108.37 26.4382 107.405 27.8974 105.372 27.8974H92.1151C92.0756 27.8987 92.0382 27.915 92.0103 27.9429C91.9824 27.9708 91.9662 28.0082 91.9648 28.0476V30.0541C91.9662 30.0935 91.9824 30.1309 92.0103 30.1588C92.0382 30.1867 92.0756 30.2029 92.1151 30.2043H106.906C110.994 30.2043 113 27.6882 113 24.4103V14.4264C113 12.3985 113.961 10.9339 115.994 10.9339H128.564C128.603 10.9339 128.642 10.9181 128.67 10.8899C128.698 10.8617 128.714 10.8235 128.714 10.7837V8.78259C128.714 8.74224 128.698 8.70346 128.67 8.67444C128.642 8.64541 128.604 8.62841 128.564 8.62701Z" fill="#FAF5F5" fill-opacity="0.7"/>
<path id="Vector_7" d="M86.9004 8.63239H61.3908C61.3504 8.63236 61.3117 8.64801 61.2826 8.67604C61.2536 8.70407 61.2366 8.74227 61.2352 8.7826V10.7837C61.2352 10.8039 61.2393 10.8238 61.2471 10.8424C61.255 10.861 61.2666 10.8778 61.2811 10.8918C61.2956 10.9059 61.3128 10.9168 61.3317 10.924C61.3505 10.9313 61.3706 10.9346 61.3908 10.9339H85.3715C87.4047 10.9339 88.365 12.3985 88.365 14.4317C88.365 16.465 87.4047 17.9242 85.3715 17.9242H66.4015C63.4562 17.9242 61.2352 20.3974 61.2352 23.6807V30.0541C61.2345 30.074 61.2378 30.0939 61.2451 30.1124C61.2524 30.131 61.2634 30.1479 61.2775 30.162C61.2916 30.1761 61.3085 30.1871 61.3271 30.1944C61.3456 30.2017 61.3655 30.205 61.3854 30.2043H65.7309C65.7508 30.205 65.7707 30.2017 65.7893 30.1944C65.8078 30.1871 65.8247 30.1761 65.8388 30.162C65.8529 30.1479 65.8639 30.131 65.8712 30.1124C65.8785 30.0939 65.8819 30.074 65.8811 30.0541V23.6807C65.8811 21.6528 67.056 20.2311 68.7352 20.2311H86.9165C91.0099 20.2311 93.011 17.7204 93.011 14.4371C93.011 11.1538 91.0099 8.63239 86.9165 8.63239" fill="#FAF5F5" fill-opacity="0.7"/>
<path id="Vector_8" d="M162.046 25.5959H157.721C157.681 25.596 157.641 25.5805 157.611 25.5526C157.581 25.5247 157.563 25.4865 157.561 25.4457V10.9231C157.561 8.69675 156.021 7.96714 153.853 9.3137L127.85 25.2686C126.831 25.8963 126.488 26.6098 126.734 27.1302C126.981 27.6506 127.507 27.8974 128.633 27.8974H152.775C152.807 27.8995 152.838 27.9114 152.863 27.9316C152.888 27.9518 152.906 27.9792 152.915 28.0101V30.0487C152.915 30.089 152.93 30.1278 152.958 30.1568C152.986 30.1859 153.024 30.2029 153.065 30.2043H157.405C157.446 30.2043 157.486 30.1879 157.515 30.1587C157.544 30.1295 157.561 30.0899 157.561 30.0487V28.053C157.561 28.0126 157.576 27.9738 157.604 27.9448C157.632 27.9158 157.67 27.8988 157.711 27.8974H162.04C162.08 27.8974 162.119 27.8818 162.148 27.8537C162.177 27.8257 162.194 27.7875 162.196 27.7472V25.7461C162.194 25.7058 162.177 25.6676 162.148 25.6395C162.119 25.6115 162.08 25.5959 162.04 25.5959M152.92 25.4296C152.921 25.45 152.917 25.4704 152.91 25.4895C152.903 25.5087 152.892 25.5262 152.878 25.5412C152.864 25.5561 152.848 25.5682 152.829 25.5767C152.81 25.5851 152.79 25.5898 152.77 25.5905H132.528C132.367 25.5905 132.282 25.5476 132.255 25.4832C132.228 25.4189 132.287 25.3223 132.405 25.2365L152.55 12.833C152.689 12.7472 152.925 12.7633 152.925 13.0369L152.92 25.4296Z" fill="#FAF5F5" fill-opacity="0.7"/>
<path id="Vector_9" d="M164.245 28.509C164.245 28.1277 164.397 27.762 164.666 27.4923C164.936 27.2227 165.301 27.0712 165.683 27.0712C165.872 27.0695 166.059 27.1062 166.233 27.1791C166.408 27.2519 166.565 27.3594 166.697 27.495C166.833 27.6266 166.941 27.7842 167.014 27.9584C167.088 28.1326 167.126 28.3198 167.126 28.509C167.127 28.6975 167.09 28.8844 167.018 29.0588C166.947 29.2332 166.841 29.3917 166.708 29.5253C166.575 29.6589 166.417 29.7649 166.243 29.8372C166.069 29.9095 165.882 29.9467 165.694 29.9467C165.504 29.9482 165.317 29.912 165.142 29.8402C164.967 29.7685 164.807 29.6626 164.674 29.5288C164.54 29.395 164.434 29.236 164.362 29.0609C164.291 28.8858 164.254 28.6982 164.256 28.509H164.245ZM165.683 30.2418C165.91 30.2418 166.135 30.1968 166.345 30.1093C166.555 30.0219 166.746 29.8937 166.906 29.7322C167.229 29.4083 167.411 28.9693 167.411 28.5117C167.411 28.054 167.229 27.615 166.906 27.2912C166.749 27.1241 166.559 26.9904 166.349 26.8982C166.139 26.8061 165.912 26.7572 165.683 26.7547C165.334 26.7451 164.99 26.8415 164.697 27.0313C164.403 27.221 164.175 27.4952 164.04 27.8177C163.906 28.1402 163.873 28.4957 163.945 28.8375C164.017 29.1793 164.191 29.4912 164.444 29.7322C164.603 29.8941 164.794 30.0227 165.004 30.1102C165.214 30.1977 165.439 30.2424 165.667 30.2418" fill="#FAF5F5" fill-opacity="0.7"/>
<path id="Vector_10" d="M166.149 28.0744C166.155 28.1154 166.15 28.1571 166.135 28.1956C166.12 28.2341 166.096 28.2681 166.064 28.2944C165.988 28.3395 165.9 28.3601 165.811 28.3534H165.275V27.8169H165.838C165.902 27.8143 165.966 27.8253 166.026 27.8491C166.067 27.8702 166.1 27.9029 166.122 27.943C166.144 27.9831 166.154 28.0288 166.149 28.0744ZM166.53 29.3137C166.53 29.3137 166.487 29.2761 166.471 29.2278C166.455 29.1796 166.471 29.1527 166.471 29.083V28.8362C166.476 28.7451 166.452 28.6548 166.402 28.5787C166.37 28.5414 166.332 28.5104 166.289 28.4875C166.346 28.449 166.395 28.3998 166.434 28.3426C166.489 28.2563 166.515 28.155 166.509 28.053C166.518 27.9543 166.495 27.8553 166.444 27.7705C166.393 27.6856 166.316 27.6192 166.225 27.5808C166.109 27.5319 165.985 27.5099 165.86 27.5165H164.964V29.4371H165.302V28.6484H165.838C165.91 28.6436 165.981 28.6546 166.048 28.6806C166.084 28.6992 166.115 28.7289 166.134 28.7654C166.153 28.8019 166.16 28.8436 166.155 28.8845V29.1903C166.155 29.2654 166.155 29.3137 166.155 29.3405C166.16 29.3668 166.169 29.3922 166.182 29.4156H166.552V29.3137H166.525" fill="#FAF5F5" fill-opacity="0.7"/>
</g>
</g>
</g>
<defs>
<clipPath id="clip0_324_230">
<rect width="166.593" height="35" fill="white" transform="translate(0.816895 0.34375)"/>
</clipPath>
</defs>
</svg>
