<svg width="163" height="36" viewBox="0 0 163 36" fill="none" xmlns="http://www.w3.org/2000/svg">
<g id="ps5_b" clip-path="url(#clip0_324_243)">
<g id="&#227;&#131;&#172;&#227;&#130;&#164;&#227;&#131;&#164;&#227;&#131;&#188; 2">
<g id="logo">
<path id="Vector" d="M100.089 28.3306C100.83 28.3311 101.564 28.1855 102.249 27.9022C102.934 27.6189 103.557 27.2033 104.081 26.6793C104.606 26.1553 105.022 25.5331 105.305 24.8482C105.589 24.1633 105.735 23.4293 105.735 22.6879V12.9872C105.735 12.5407 105.823 12.0987 105.994 11.6862C106.165 11.2738 106.415 10.899 106.731 10.5833C107.047 10.2676 107.421 10.0172 107.834 9.84638C108.246 9.67554 108.688 9.58761 109.135 9.58761H120.087C120.127 9.58657 120.165 9.57019 120.193 9.54185C120.222 9.51352 120.238 9.47539 120.239 9.43533V7.49271C120.238 7.45304 120.221 7.41536 120.193 7.38768C120.165 7.36001 120.126 7.34453 120.087 7.34454H106.892C106.15 7.344 105.416 7.48956 104.731 7.77288C104.046 8.05621 103.424 8.47176 102.899 8.99578C102.375 9.5198 101.959 10.142 101.675 10.8269C101.391 11.5118 101.245 12.2458 101.245 12.9872V22.7003C101.245 23.1472 101.157 23.5898 100.986 24.0028C100.815 24.4158 100.564 24.791 100.248 25.107C99.9321 25.4231 99.5569 25.6738 99.1439 25.8449C98.731 26.0159 98.2884 26.104 97.8414 26.104H87.0459C87.0066 26.104 86.9689 26.1196 86.9411 26.1473C86.9133 26.1751 86.8977 26.2128 86.8977 26.2521V28.1947C86.8977 28.234 86.9133 28.2717 86.9411 28.2995C86.9689 28.3273 87.0066 28.3429 87.0459 28.3429L100.089 28.3306Z" fill="#FAF5F5" fill-opacity="0.7"/>
<path id="Vector_2" d="M124.754 15.2302V7.49271C124.754 7.47325 124.758 7.45398 124.765 7.43601C124.773 7.41803 124.784 7.4017 124.797 7.38794C124.811 7.37418 124.827 7.36327 124.845 7.35582C124.863 7.34838 124.883 7.34454 124.902 7.34454H154.725C154.764 7.34454 154.802 7.36015 154.829 7.38794C154.857 7.41573 154.873 7.45341 154.873 7.49271V9.43532C154.873 9.47501 154.857 9.51313 154.83 9.54157C154.802 9.57002 154.764 9.58653 154.725 9.5876H129.388C129.349 9.5876 129.311 9.60322 129.283 9.631C129.256 9.65879 129.24 9.69647 129.24 9.73577V14.7775C129.239 14.9899 129.28 15.2004 129.361 15.3968C129.441 15.5933 129.56 15.7718 129.71 15.9222C129.86 16.0726 130.038 16.1918 130.234 16.2729C130.431 16.354 130.641 16.3955 130.853 16.395H149.716C150.526 16.3524 151.336 16.4752 152.097 16.7559C152.858 17.0366 153.554 17.4693 154.143 18.0277C154.731 18.586 155.2 19.2583 155.52 20.0036C155.84 20.7489 156.005 21.5516 156.005 22.3628C156.005 23.174 155.84 23.9766 155.52 24.7219C155.2 25.4672 154.731 26.1395 154.143 26.6979C153.554 27.2562 152.858 27.6889 152.097 27.9696C151.336 28.2503 150.526 28.3731 149.716 28.3305H124.902C124.883 28.3305 124.863 28.3267 124.845 28.3193C124.827 28.3118 124.811 28.3009 124.797 28.2872C124.784 28.2734 124.773 28.2571 124.765 28.2391C124.758 28.2211 124.754 28.2018 124.754 28.1824V26.2727C124.754 26.2532 124.758 26.234 124.765 26.216C124.773 26.198 124.784 26.1817 124.797 26.1679C124.811 26.1542 124.827 26.1433 124.845 26.1358C124.863 26.1284 124.883 26.1245 124.902 26.1245C130.545 26.1245 147.473 26.1245 147.473 26.1245C147.974 26.1391 148.472 26.0528 148.939 25.8707C149.406 25.6887 149.832 25.4145 150.19 25.0647C150.549 24.7149 150.834 24.2964 151.028 23.8343C151.222 23.3721 151.32 22.8758 151.318 22.3746C151.317 21.8735 151.214 21.3779 151.016 20.9173C150.819 20.4566 150.531 20.0404 150.17 19.6933C149.808 19.3463 149.381 19.0755 148.912 18.897C148.444 18.7185 147.945 18.6361 147.444 18.6545H128.158C127.709 18.6545 127.265 18.5658 126.85 18.3935C126.436 18.2211 126.06 17.9686 125.744 17.6503C125.427 17.3321 125.177 16.9544 125.007 16.5391C124.837 16.1238 124.751 15.679 124.754 15.2302Z" fill="#FAF5F5" fill-opacity="0.7"/>
<path id="Vector_3" d="M80.4771 16.395C80.9338 16.4109 81.3889 16.3347 81.8155 16.1709C82.2421 16.0071 82.6313 15.7591 82.96 15.4416C83.2887 15.1242 83.5501 14.7438 83.7286 14.3232C83.9071 13.9026 83.9991 13.4503 83.9991 12.9934C83.9991 12.5364 83.9071 12.0842 83.7286 11.6635C83.5501 11.2429 83.2887 10.8625 82.96 10.5451C82.6313 10.2277 82.2421 9.97966 81.8155 9.81586C81.3889 9.65207 80.9338 9.57584 80.4771 9.59173H57.6184C57.5788 9.59066 57.5411 9.57414 57.5134 9.5457C57.4857 9.51726 57.4703 9.47913 57.4703 9.43945V7.49272C57.4697 7.47292 57.4731 7.45321 57.4803 7.43475C57.4875 7.4163 57.4984 7.39948 57.5122 7.38528C57.526 7.37108 57.5425 7.3598 57.5608 7.3521C57.579 7.34439 57.5986 7.34043 57.6184 7.34044H82.7243C83.4784 7.32007 84.2289 7.45101 84.9316 7.72553C85.6342 8.00004 86.2747 8.41257 86.8153 8.93874C87.3559 9.46491 87.7855 10.0941 88.0789 10.7891C88.3723 11.484 88.5235 12.2308 88.5235 12.9851C88.5235 13.7395 88.3723 14.4862 88.0789 15.1812C87.7855 15.8762 87.3559 16.5054 86.8153 17.0315C86.2747 17.5577 85.6342 17.9702 84.9316 18.2447C84.2289 18.5193 83.4784 18.6502 82.7243 18.6298H65.3395C64.4368 18.6298 63.5711 18.9884 62.9327 19.6267C62.2944 20.2651 61.9358 21.1308 61.9358 22.0335V28.2071C61.9358 28.2464 61.9202 28.2841 61.8924 28.3119C61.8646 28.3396 61.827 28.3553 61.7877 28.3553H57.6184C57.5791 28.3553 57.5415 28.3396 57.5137 28.3119C57.4859 28.2841 57.4703 28.2464 57.4703 28.2071V22.0335C57.4714 20.5406 58.0641 19.1089 59.1186 18.052C60.1731 16.9952 61.6035 16.3994 63.0964 16.395H80.4771Z" fill="#FAF5F5" fill-opacity="0.7"/>
<path id="Vector_4" d="M17.3586 0.34375V33.0019L24.7669 35.3438V7.96193C24.7669 6.6696 25.3431 5.81353 26.265 6.10986C27.4709 6.44323 27.7055 7.63267 27.7055 8.90854V19.844C32.3069 22.0706 35.937 19.844 35.937 13.9668C35.937 7.95781 33.8133 5.2826 27.5615 3.13009C24.2179 2.00262 20.8111 1.07224 17.3586 0.34375Z" fill="#FAF5F5" fill-opacity="0.7"/>
<path id="Vector_5" d="M26.1621 30.5695L38.0359 26.3427C39.3818 25.8447 39.5876 25.1697 38.4969 24.8117C37.4062 24.4536 35.4225 24.5524 34.0643 25.0421L26.1621 27.8285V23.3917L26.6148 23.2436C28.4048 22.6651 30.2505 22.2761 32.1217 22.0829C35.5856 21.7337 39.0839 22.1554 42.3657 23.3176C45.8558 24.4248 46.2468 26.0422 45.3619 27.1658C44.477 28.2894 42.2957 29.0838 42.2957 29.0838L26.1621 34.8458V30.5695Z" fill="#FAF5F5" fill-opacity="0.7"/>
<path id="Vector_6" d="M3.81381 30.1209C0.237259 29.1208 -0.359519 27.0177 1.2703 25.8036C2.77665 24.6923 5.34897 23.8568 5.34897 23.8568L15.9305 20.0992V24.3795L8.3164 27.0959C6.96644 27.5774 6.76478 28.2565 7.85132 28.6146C8.93787 28.9727 10.9216 28.8821 12.2716 28.3841L15.9305 27.0959V30.9358L15.1937 31.0552C11.3809 31.6738 7.47472 31.3531 3.81381 30.1209Z" fill="#FAF5F5" fill-opacity="0.7"/>
<path id="Vector_7" d="M42.8554 31.8454C43.201 31.847 43.5383 31.951 43.8249 32.1442C44.1115 32.3373 44.3344 32.6111 44.4655 32.9309C44.5966 33.2506 44.6301 33.6021 44.5617 33.9408C44.4933 34.2796 44.326 34.5905 44.0811 34.8343C43.8361 35.0781 43.5244 35.2439 43.1854 35.3107C42.8463 35.3775 42.495 35.3424 42.1759 35.2098C41.8567 35.0772 41.584 34.853 41.3922 34.5655C41.2003 34.278 41.098 33.9402 41.098 33.5946C41.0898 33.362 41.1298 33.1302 41.2154 32.9138C41.3009 32.6973 41.4302 32.5009 41.5952 32.3367C41.7601 32.1725 41.9572 32.0441 42.174 31.9596C42.3909 31.8751 42.6228 31.8362 42.8554 31.8454ZM42.8554 35.0844C43.1505 35.0869 43.4398 35.0016 43.6864 34.8394C43.9331 34.6772 44.1259 34.4453 44.2406 34.1733C44.3553 33.9013 44.3865 33.6014 44.3305 33.3115C44.2744 33.0217 44.1335 32.7551 43.9256 32.5455C43.7177 32.3359 43.4523 32.1928 43.1629 32.1343C42.8736 32.0758 42.5734 32.1045 42.3004 32.2169C42.0275 32.3293 41.7941 32.5203 41.6298 32.7655C41.4655 33.0108 41.3778 33.2994 41.3778 33.5946C41.3704 33.7912 41.4035 33.9872 41.4749 34.1705C41.5464 34.3538 41.6548 34.5204 41.7933 34.6601C41.9318 34.7998 42.0976 34.9096 42.2803 34.9825C42.463 35.0555 42.6587 35.0902 42.8554 35.0844ZM42.1639 32.578H42.9624C43.3328 32.578 43.6085 32.685 43.6085 33.1007C43.6151 33.2141 43.581 33.3261 43.5123 33.4167C43.4437 33.5072 43.345 33.5703 43.234 33.5946C43.3657 33.6275 43.4604 33.7263 43.5262 33.9609C43.5921 34.1954 43.6662 34.4012 43.7238 34.5947H43.3534C43.2999 34.4424 43.234 34.1831 43.1928 34.0432C43.1352 33.8086 43.0694 33.7345 42.7813 33.7345H42.5426V34.5947H42.1804L42.1639 32.578ZM42.5261 33.4834H42.8471C43.1023 33.4834 43.2587 33.3847 43.2587 33.1501C43.2587 32.9155 43.0694 32.8331 42.8718 32.8331H42.5261V33.4834Z" fill="#FAF5F5" fill-opacity="0.7"/>
<path id="Vector_8" d="M158.729 26.248H158.042V26.0093H159.688V26.248H159.001V28.3306H158.717L158.729 26.248Z" fill="#FAF5F5" fill-opacity="0.7"/>
<path id="Vector_9" d="M161.161 28.0837L161.82 26.0258H162.306V28.3306H162.034V26.2275L161.334 28.3306H160.976L160.305 26.2151V28.3306H160.038V26.0093H160.511L161.161 28.0837Z" fill="#FAF5F5" fill-opacity="0.7"/>
</g>
</g>
</g>
<defs>
<clipPath id="clip0_324_243">
<rect width="161.9" height="35" fill="white" transform="translate(0.410156 0.34375)"/>
</clipPath>
</defs>
</svg>
