<svg width="117" height="36" viewBox="0 0 117 36" fill="none" xmlns="http://www.w3.org/2000/svg">
<g id="steam_b" clip-path="url(#clip0_324_216)">
<g id="&#227;&#131;&#172;&#227;&#130;&#164;&#227;&#131;&#164;&#227;&#131;&#188; 2">
<g id="Layer 1">
<path id="Vector" d="M17.5246 0.343689C13.1268 0.344495 8.89062 2.00126 5.65914 4.98422C2.42767 7.96717 0.437919 12.0576 0.0859375 16.4412L9.46595 20.3183C10.2876 19.7564 11.2597 19.4558 12.255 19.4558H12.528L16.7017 13.4187V13.3317C16.7025 12.0267 17.0902 10.7513 17.8158 9.66666C18.5413 8.58201 19.5722 7.73683 20.7781 7.23799C21.9839 6.73914 23.3106 6.60903 24.5904 6.86409C25.8702 7.11916 27.0456 7.74795 27.9681 8.67097C28.8905 9.594 29.5186 10.7698 29.7729 12.0497C30.0272 13.3297 29.8963 14.6563 29.3967 15.8618C28.8972 17.0674 28.0514 18.0978 26.9663 18.8227C25.8812 19.5476 24.6055 19.9345 23.3006 19.9345H23.1503L17.216 24.1795C17.216 24.2586 17.216 24.3377 17.216 24.4168C17.218 25.6472 16.762 26.8343 15.9368 27.7469C15.1116 28.6595 13.9762 29.2323 12.7519 29.3538C11.5275 29.4752 10.3017 29.1366 9.31331 28.4039C8.32488 27.6712 7.64455 26.5968 7.4048 25.39L0.679359 22.6207C1.56757 25.7528 3.31176 28.575 5.71588 30.7702C8.11999 32.9654 11.0887 34.4466 14.2884 35.0472C17.4881 35.6478 20.7919 35.3441 23.8284 34.1702C26.865 32.9962 29.5139 30.9986 31.4775 28.4019C33.4411 25.8052 34.6414 22.7122 34.9437 19.4707C35.246 16.2292 34.6382 12.9677 33.1886 10.0526C31.739 7.13761 29.5051 4.68467 26.738 2.96953C23.9708 1.25439 20.7802 0.345041 17.5246 0.343689Z" fill="#FAF5F5" fill-opacity="0.7"/>
<path id="Vector_2" d="M11.0525 26.8973L8.9043 26.0111C9.21805 26.6608 9.71404 27.2053 10.3318 27.578C10.9496 27.9508 11.6624 28.1358 12.3835 28.1105C13.1046 28.0852 13.8027 27.8507 14.3928 27.4355C14.9829 27.0203 15.4395 26.4425 15.707 25.7724C15.9744 25.1022 16.0411 24.3688 15.899 23.6614C15.7568 22.954 15.412 22.3033 14.9064 21.7885C14.4009 21.2736 13.7565 20.917 13.0519 20.762C12.3472 20.6071 11.6126 20.6604 10.9378 20.9156L13.1413 21.8453C13.4836 21.9761 13.7961 22.1742 14.0604 22.4279C14.3247 22.6817 14.5354 22.9859 14.6799 23.3226C14.8245 23.6592 14.9 24.0215 14.902 24.3879C14.9039 24.7542 14.8324 25.1173 14.6915 25.4555C14.5506 25.7937 14.3432 26.1002 14.0817 26.3568C13.8202 26.6134 13.5098 26.8149 13.169 26.9493C12.8282 27.0838 12.4638 27.1485 12.0975 27.1395C11.7313 27.1306 11.3705 27.0482 11.0367 26.8973H11.0525Z" fill="#FAF5F5" fill-opacity="0.7"/>
<path id="Vector_3" d="M27.6998 13.3317C27.6959 12.4625 27.4346 11.6139 26.9488 10.8931C26.463 10.1722 25.7746 9.61143 24.9704 9.28149C24.1662 8.95156 23.2823 8.86726 22.4302 9.03923C21.5782 9.2112 20.7962 9.63174 20.1829 10.2478C19.5696 10.8638 19.1526 11.6477 18.9845 12.5005C18.8163 13.3533 18.9046 14.2369 19.2381 15.0396C19.5717 15.8423 20.1355 16.5282 20.8585 17.0107C21.5816 17.4932 22.4313 17.7507 23.3006 17.7507C23.8798 17.7502 24.4532 17.6354 24.988 17.4129C25.5228 17.1904 26.0085 16.8646 26.4171 16.4541C26.8258 16.0436 27.1494 15.5565 27.3695 15.0207C27.5896 14.4849 27.7019 13.911 27.6998 13.3317ZM20.0051 13.3317C20.0051 12.6784 20.1988 12.0397 20.5618 11.4965C20.9248 10.9532 21.4407 10.5298 22.0443 10.2798C22.6479 10.0298 23.3121 9.96436 23.9529 10.0918C24.5937 10.2193 25.1823 10.5339 25.6443 10.9959C26.1063 11.4579 26.4209 12.0465 26.5484 12.6873C26.6758 13.3281 26.6104 13.9923 26.3604 14.5959C26.1104 15.1995 25.687 15.7154 25.1437 16.0784C24.6005 16.4414 23.9618 16.6351 23.3085 16.6351C22.8743 16.6351 22.4444 16.5495 22.0434 16.3833C21.6424 16.217 21.278 15.9733 20.9712 15.6662C20.6644 15.359 20.4212 14.9944 20.2554 14.5931C20.0896 14.1919 20.0046 13.7619 20.0051 13.3278V13.3317Z" fill="#FAF5F5" fill-opacity="0.7"/>
<path id="Vector_4" d="M53.7154 12.3189L52.5285 14.3801C51.5845 13.7381 50.4734 13.3861 49.332 13.3673C48.1135 13.3673 47.3539 13.8737 47.3539 14.7797C47.3539 15.8795 48.695 16.1366 50.6889 16.8527C52.8332 17.6083 54.0675 18.5024 54.0675 20.4646C54.0675 23.1509 51.9549 24.6621 48.9245 24.6621C47.298 24.6666 45.6984 24.2466 44.2839 23.4436L45.1385 21.1609C46.2615 21.7542 47.5082 22.0753 48.7781 22.0985C50.3606 22.0985 51.1518 21.5051 51.1518 20.6308C51.1518 19.6339 49.9887 19.3292 48.1135 18.7121C45.9772 17.996 44.4936 17.0584 44.4936 14.8865C44.4936 12.4337 46.4717 11.0253 49.2845 11.0253C50.8606 10.9811 52.4107 11.4337 53.7154 12.3189Z" fill="#FAF5F5" fill-opacity="0.7"/>
<path id="Vector_5" d="M62.8817 13.6205V24.4366H60.1124V13.6205H56.1167V11.2468H66.8774V13.6205H62.8817Z" fill="#FAF5F5" fill-opacity="0.7"/>
<path id="Vector_6" d="M72.7008 13.6126V16.5837H77.9823V18.9574H72.7008V22.0511H78.8131V24.4248H69.9395V11.2508H78.8131V13.6245L72.7008 13.6126Z" fill="#FAF5F5" fill-opacity="0.7"/>
<path id="Vector_7" d="M84.9928 21.877L84.1185 24.4366H81.2266L86.1678 11.2508H88.9371L94.0326 24.4366H91.0378L90.1477 21.877H84.9928ZM87.5406 14.3959L85.7405 19.6774H89.3802L87.5406 14.3959Z" fill="#FAF5F5" fill-opacity="0.7"/>
<path id="Vector_8" d="M108.199 16.3463L104.591 24.0529H103.033L99.4721 16.4175V24.4366H96.8293V11.2508H99.4681L103.899 20.7693L108.172 11.2508H110.858V24.4366H108.211L108.199 16.3463Z" fill="#FAF5F5" fill-opacity="0.7"/>
<path id="Vector_9" d="M116.183 12.9163C116.181 13.2776 116.073 13.6304 115.871 13.93C115.669 14.2296 115.382 14.4626 115.048 14.5996C114.714 14.7366 114.346 14.7715 113.992 14.6997C113.638 14.628 113.313 14.4529 113.058 14.1966C112.804 13.9403 112.631 13.6142 112.561 13.2596C112.492 12.905 112.529 12.5378 112.668 12.2044C112.808 11.8709 113.042 11.5862 113.343 11.3862C113.644 11.1862 113.998 11.0799 114.359 11.0806C114.601 11.0746 114.842 11.118 115.067 11.2083C115.292 11.2986 115.496 11.4338 115.666 11.6056C115.837 11.7774 115.971 11.9823 116.06 12.2077C116.149 12.433 116.19 12.6742 116.183 12.9163ZM112.836 12.9163C112.836 13.3192 112.996 13.7056 113.281 13.9905C113.566 14.2754 113.952 14.4354 114.355 14.4354C114.758 14.4354 115.144 14.2754 115.429 13.9905C115.714 13.7056 115.874 13.3192 115.874 12.9163C115.874 12.5134 115.714 12.127 115.429 11.8421C115.144 11.5572 114.758 11.3971 114.355 11.3971C113.952 11.3971 113.566 11.5572 113.281 11.8421C112.996 12.127 112.836 12.5134 112.836 12.9163ZM114.383 11.9787C114.857 11.9787 115.016 12.2279 115.016 12.4969C115.017 12.6028 114.987 12.7067 114.929 12.7955C114.872 12.8843 114.789 12.9538 114.691 12.9954L115.115 13.7866H114.767L114.41 13.0824H114.043V13.7945H113.754V11.9787H114.383ZM114.043 12.8213H114.367C114.409 12.8258 114.451 12.8214 114.491 12.8085C114.531 12.7957 114.568 12.7746 114.599 12.7466C114.63 12.7187 114.655 12.6845 114.673 12.6462C114.69 12.608 114.699 12.5666 114.699 12.5246C114.699 12.3585 114.608 12.2517 114.367 12.2517H114.043V12.8213Z" fill="#FAF5F5" fill-opacity="0.7"/>
</g>
</g>
</g>
<defs>
<clipPath id="clip0_324_216">
<rect width="116.097" height="35" fill="white" transform="translate(0.0859375 0.343689)"/>
</clipPath>
</defs>
</svg>
