<svg width="141" height="36" viewBox="0 0 141 36" fill="none" xmlns="http://www.w3.org/2000/svg">
<g id="xboxxs_b" clip-path="url(#clip0_324_228)">
<path id="Vector" d="M79.1438 7.58096C79.1455 6.58527 78.979 5.59644 78.6514 4.65621C78.3535 3.7932 77.8811 3.00078 77.2636 2.32835C76.6621 1.67986 75.9262 1.17058 75.1073 0.836129C73.3324 0.169858 71.376 0.169858 69.6011 0.836129C68.7847 1.16727 68.053 1.67718 67.4597 2.32835C66.8351 2.99811 66.3573 3.79101 66.057 4.65621C65.7334 5.59687 65.5744 6.58627 65.587 7.58096C65.5725 8.57822 65.7316 9.57041 66.057 10.5132C66.354 11.3733 66.8324 12.1595 67.4597 12.8186C68.0518 13.4712 68.7839 13.9813 69.6011 14.3109C71.3741 14.9875 73.3343 14.9875 75.1073 14.3109C75.927 13.9779 76.6632 13.4684 77.2636 12.8186C77.8809 12.1518 78.3534 11.3642 78.6514 10.5057C78.9801 9.56576 79.1467 8.57674 79.1438 7.58096ZM75.7117 11.4682C75.2878 11.9252 74.7741 12.2897 74.2028 12.539C73.6315 12.7883 73.0148 12.917 72.3915 12.917C71.7682 12.917 71.1516 12.7883 70.5803 12.539C70.0089 12.2897 69.4953 11.9252 69.0713 11.4682C68.1844 10.3732 67.7351 8.9881 67.8104 7.58096C67.7413 6.17006 68.1896 4.78246 69.0713 3.67881C69.4981 3.22674 70.0128 2.86659 70.5837 2.62045C71.1546 2.3743 71.7698 2.24733 72.3915 2.24733C73.0132 2.24733 73.6284 2.3743 74.1993 2.62045C74.7702 2.86659 75.2849 3.22674 75.7117 3.67881C76.586 4.78529 77.0264 6.17281 76.9502 7.58096C77.0304 8.98504 76.5893 10.3693 75.7117 11.4682ZM64.3037 8.5509C63.8627 7.95035 63.252 7.49559 62.5503 7.24521C63.1039 6.97162 63.5675 6.5451 63.8862 6.01617C64.2049 5.48724 64.3653 4.87806 64.3484 4.26077C64.3653 3.76819 64.2731 3.27797 64.0783 2.82521C63.8836 2.37246 63.5911 1.96838 63.2218 1.64193C62.3064 0.925866 61.1579 0.574929 59.9986 0.657063H53.7761V6.57371H51.9705L50.6872 8.34199H53.7761V14.5198H60.2747C61.5172 14.6025 62.7467 14.2254 63.7292 13.4603C64.1305 13.0978 64.4464 12.6508 64.6541 12.1515C64.8618 11.6522 64.9562 11.113 64.9304 10.5729C64.9418 9.84938 64.7223 9.1411 64.3037 8.5509ZM55.8876 2.47757H59.8643C60.5014 2.43913 61.1319 2.62381 61.6475 2.99985C61.8482 3.17973 62.0055 3.40275 62.1076 3.65216C62.2097 3.90157 62.2539 4.17088 62.237 4.43984C62.2592 4.73334 62.2174 5.02817 62.1143 5.30388C62.0112 5.57959 61.8494 5.82958 61.6401 6.03651C61.125 6.43206 60.482 6.62337 59.8345 6.57371H55.8876V2.47757ZM62.1027 12.1248C61.5387 12.5327 60.8498 12.7306 60.1553 12.6844H55.8876V8.34199H60.1553C60.8549 8.29298 61.5501 8.48522 62.125 8.88665C62.35 9.09519 62.5252 9.35168 62.6375 9.63711C62.7499 9.92255 62.7966 10.2296 62.7742 10.5356C62.7924 10.8343 62.7413 11.1332 62.6248 11.4089C62.5083 11.6846 62.3296 11.9296 62.1027 12.1248ZM27.6249 29.5166C24.6242 32.1433 20.7719 33.5912 16.784 33.5912C12.796 33.5912 8.94369 32.1433 5.94299 29.5166C3.36891 26.8977 11.7999 17.6311 16.7243 13.8856C16.7324 13.8816 16.7413 13.8796 16.7504 13.8796C16.7594 13.8796 16.7684 13.8816 16.7765 13.8856C16.7936 13.8808 16.8116 13.8808 16.8287 13.8856C21.7605 17.6311 30.199 26.8977 27.6249 29.5166ZM3.78673 27.0395C3.78673 27.0395 3.78673 27.1066 3.78673 27.1216C3.78673 27.1365 3.71958 27.1216 3.6972 27.1216C1.28447 23.9455 0.105945 20.0019 0.380368 16.0228C0.654791 12.0436 2.36352 8.29919 5.18942 5.48439L5.25657 5.43216C5.53263 5.23071 7.23376 4.69352 12.2476 9.69245C12.2551 9.71164 12.2551 9.73295 12.2476 9.75214C12.2527 9.76662 12.2527 9.78242 12.2476 9.79691C8.94981 13.7737 2.54819 23.1597 3.78673 27.0395ZM28.4083 5.40232C31.2456 8.2184 32.9616 11.9704 33.2361 15.9585C33.5107 19.9467 32.3251 23.8985 29.9006 27.0768C29.8895 27.0873 29.8748 27.0931 29.8595 27.0931C29.8443 27.0931 29.8296 27.0873 29.8185 27.0768C29.8185 27.0768 29.8185 27.0246 29.8185 26.9947C31.072 23.115 24.6554 13.6991 21.3352 9.75214C21.3352 9.75214 21.3352 9.75214 21.3352 9.70737C21.3284 9.68806 21.3284 9.66699 21.3352 9.64768C26.364 4.64875 28.0502 5.17103 28.3412 5.32771L28.4083 5.40232ZM84.6202 8.92396L80.5912 14.5198H78.2335L83.4563 7.3049L78.6514 0.657063H81.0091L84.6202 5.67838L88.2986 0.657063H90.6637L85.8289 7.29744L91.0517 14.5123H88.6865L84.6202 8.92396ZM8.17386 3.13415C8.16478 3.12239 8.15986 3.10796 8.15986 3.09311C8.15986 3.07826 8.16478 3.06383 8.17386 3.05207C10.7584 1.47618 13.727 0.642507 16.7541 0.642507C19.7812 0.642507 22.7498 1.47618 25.3344 3.05207C25.3435 3.06383 25.3484 3.07826 25.3484 3.09311C25.3484 3.10796 25.3435 3.12239 25.3344 3.13415C25.3226 3.14322 25.3082 3.14814 25.2933 3.14814C25.2785 3.14814 25.2641 3.14322 25.2523 3.13415C22.0664 2.44773 17.2167 5.20087 16.7616 5.47693H16.7243C16.2691 5.20087 11.4194 2.44773 8.23355 3.13415C8.22427 3.13875 8.21406 3.14114 8.2037 3.14114C8.19335 3.14114 8.18313 3.13875 8.17386 3.13415ZM47.4267 7.29744L52.6494 14.5123H50.2992L46.2478 8.92396L42.189 14.5198H39.8537L45.0764 7.3049L40.2416 0.657063H42.5993L46.2478 5.67838L49.8963 0.657063H52.254L47.4267 7.29744ZM52.7539 19.7425H62.6548V21.6451H54.8729V25.6592H61.7594V27.4275H54.8729V31.6803H62.6548V33.5829H52.7539V19.7425ZM51.0453 29.7628C51.0671 30.3477 50.9484 30.9294 50.6992 31.459C50.4499 31.9887 50.0774 32.4509 49.6128 32.8069C48.4527 33.6081 47.0585 33.9993 45.6509 33.9186C44.1147 34.0166 42.5923 33.576 41.3459 32.6726C40.8352 32.2187 40.4352 31.6539 40.1766 31.0215C39.9179 30.3891 39.8075 29.7058 39.8537 29.0241H41.9428C41.9208 29.457 41.9958 29.8893 42.1624 30.2895C42.3289 30.6897 42.5827 31.0476 42.9053 31.3371C43.7199 31.8975 44.7025 32.1609 45.6882 32.0832C46.5179 32.1457 47.3466 31.9502 48.0609 31.5236C48.3269 31.3297 48.5405 31.0728 48.6824 30.7758C48.8244 30.4788 48.8903 30.1512 48.8741 29.8225C48.8871 29.5535 48.8324 29.2855 48.7151 29.0431C48.5978 28.8007 48.4216 28.5915 48.2026 28.4347C47.4523 27.9899 46.6244 27.6911 45.7629 27.5543L44.584 27.3006C43.3996 27.1277 42.2822 26.6437 41.3459 25.8979C40.9766 25.557 40.6869 25.1389 40.4974 24.6734C40.3078 24.2079 40.2231 23.7064 40.2491 23.2045C40.2374 22.6802 40.3503 22.1606 40.5786 21.6884C40.8069 21.2163 41.144 20.8051 41.5623 20.4887C42.6106 19.7623 43.8697 19.4029 45.1436 19.4665C46.6067 19.3617 48.0599 19.7765 49.2472 20.6379C49.7047 21.0368 50.0684 21.532 50.3121 22.0879C50.5559 22.6439 50.6738 23.2468 50.6573 23.8536H48.5608C48.5599 23.4838 48.4818 23.1182 48.3315 22.7803C48.1811 22.4424 47.9619 22.1396 47.6878 21.8913C46.9409 21.4043 46.0556 21.1738 45.166 21.2348C44.4423 21.1883 43.7217 21.3626 43.0992 21.7347C42.8636 21.887 42.6712 22.0975 42.5405 22.3458C42.4099 22.594 42.3453 22.8718 42.3531 23.1523C42.3362 23.4222 42.3851 23.6923 42.4956 23.9392C42.606 24.1861 42.7748 24.4025 42.9873 24.5699C43.6985 25.0353 44.5035 25.3384 45.345 25.4577L46.5687 25.7114C47.8165 25.9087 48.993 26.4225 49.9858 27.2036C50.3359 27.5291 50.6117 27.9261 50.7945 28.3678C50.9773 28.8094 51.0629 29.2852 51.0453 29.7628ZM75.3909 31.8967L75.2566 29.7479C75.2605 29.0952 75.0822 28.4544 74.7418 27.8975C74.3959 27.4197 73.8948 27.0768 73.3241 26.9276C73.9948 26.7231 74.5794 26.3036 74.988 25.7338C75.4115 25.1019 75.6255 24.3528 75.5998 23.5925C75.6241 23.0551 75.5212 22.5196 75.2995 22.0296C75.0778 21.5395 74.7436 21.1087 74.3239 20.7722C73.3097 20.0386 72.0746 19.6752 70.8247 19.7425H64.7737V33.6053H66.8852V27.9498H70.8844C71.1951 27.9215 71.5084 27.9557 71.8057 28.0506C72.1031 28.1454 72.3783 28.2989 72.6153 28.5019C73.0342 29.0334 73.2463 29.6987 73.2122 30.3746L73.2719 31.8668C73.238 32.4856 73.3802 33.1014 73.6823 33.6426H75.8684C75.5748 33.106 75.4113 32.508 75.3909 31.8967ZM72.7422 25.5398C72.218 25.9736 71.5486 26.1923 70.8694 26.1516H66.8852V21.578H70.7128C71.4281 21.5326 72.1378 21.7297 72.7273 22.1376C72.9648 22.3385 73.152 22.5924 73.2738 22.8787C73.3956 23.165 73.4486 23.4759 73.4286 23.7865C73.4484 24.111 73.3973 24.436 73.2787 24.7388C73.1602 25.0416 72.9771 25.315 72.7422 25.5398ZM140.086 29.7628C140.109 30.3479 139.991 30.93 139.742 31.4598C139.492 31.9897 139.119 32.4517 138.653 32.8069C137.493 33.6081 136.099 33.9993 134.692 33.9186C133.165 34.0096 131.655 33.5693 130.416 32.6726C129.896 32.2238 129.486 31.6612 129.219 31.0285C128.951 30.3959 128.832 29.71 128.872 29.0241H130.983C130.962 29.457 131.037 29.8893 131.203 30.2895C131.37 30.6897 131.623 31.0476 131.946 31.3371C132.761 31.8975 133.743 32.1609 134.729 32.0832C135.554 32.132 136.375 31.9263 137.079 31.4938C137.345 31.2999 137.559 31.0429 137.701 30.746C137.843 30.449 137.909 30.1214 137.892 29.7926C137.905 29.5236 137.851 29.2557 137.733 29.0133C137.616 28.7708 137.44 28.5617 137.221 28.4049C136.471 27.96 135.643 27.6613 134.781 27.5245L133.602 27.2708C132.421 27.0949 131.307 26.6111 130.372 25.8681C130.004 25.5262 129.715 25.108 129.525 24.6427C129.336 24.1774 129.25 23.6764 129.275 23.1747C129.268 22.6538 129.385 22.1387 129.615 21.6717C129.846 21.2047 130.185 20.7993 130.603 20.4887C131.649 19.7576 132.909 19.3954 134.184 19.459C135.648 19.3529 137.101 19.7679 138.288 20.6304C138.745 21.0294 139.109 21.5245 139.353 22.0805C139.597 22.6364 139.715 23.2393 139.698 23.8461H137.594C137.595 23.4761 137.517 23.1101 137.367 22.772C137.216 22.4339 136.996 22.1313 136.721 21.8839C135.97 21.4099 135.085 21.1926 134.199 21.2646C133.476 21.2182 132.755 21.3925 132.132 21.7645C131.904 21.9212 131.719 22.1336 131.595 22.3816C131.471 22.6296 131.412 22.9051 131.424 23.1821C131.407 23.4521 131.456 23.7221 131.566 23.9691C131.677 24.216 131.845 24.4324 132.058 24.5997C132.769 25.0651 133.574 25.3683 134.416 25.4876L135.617 25.7413C136.865 25.937 138.042 26.4509 139.034 27.2335C139.379 27.5563 139.651 27.9488 139.832 28.3849C140.014 28.821 140.1 29.2907 140.086 29.7628ZM115.778 26.3978L121.001 33.6053H118.643L114.584 28.0169L110.525 33.6053H108.167L113.39 26.3978L108.593 19.7425H110.95L114.599 24.7639L118.247 19.7425H120.605L115.778 26.3978ZM124.41 18.019H125.47V35.3437H124.41V18.019ZM77.5173 19.7425H79.6362V33.6053H77.5173V19.7425ZM103.974 29.7553C103.997 30.343 103.877 30.9274 103.625 31.4587C103.373 31.99 102.996 32.4526 102.527 32.8069C101.371 33.6048 99.9825 33.9959 98.58 33.9186C97.0588 34.0061 95.554 33.566 94.3197 32.6726C93.7995 32.2238 93.3897 31.6612 93.1219 31.0285C92.854 30.3959 92.7354 29.71 92.7752 29.0241H94.8867C94.8648 29.457 94.9398 29.8893 95.1063 30.2895C95.2728 30.6897 95.5266 31.0476 95.8492 31.3371C96.6639 31.8975 97.6464 32.1609 98.6322 32.0832C99.4575 32.132 100.278 31.9263 100.982 31.4938C101.241 31.3011 101.449 31.0482 101.589 30.757C101.728 30.4657 101.794 30.145 101.781 29.8225C101.794 29.5535 101.739 29.2855 101.622 29.0431C101.504 28.8007 101.328 28.5915 101.109 28.4347C100.359 27.9899 99.531 27.6911 98.6695 27.5543L97.4906 27.3006C96.3088 27.1264 95.1942 26.6425 94.26 25.8979C93.8907 25.557 93.601 25.1389 93.4115 24.6734C93.2219 24.2079 93.1372 23.7064 93.1632 23.2045C93.1532 22.6789 93.2684 22.1585 93.4994 21.6862C93.7303 21.214 94.0703 20.8035 94.4913 20.4887C95.5401 19.7633 96.7989 19.404 98.0726 19.4665C99.5357 19.3617 100.989 19.7765 102.176 20.6379C102.634 21.0368 102.997 21.532 103.241 22.0879C103.485 22.6439 103.603 23.2468 103.586 23.8536H101.49C101.489 23.4838 101.411 23.1182 101.26 22.7803C101.11 22.4424 100.891 22.1396 100.617 21.8913C99.8654 21.4174 98.9805 21.2001 98.095 21.2721C97.3714 21.2256 96.6507 21.3999 96.0283 21.772C95.7995 21.9287 95.6145 22.1411 95.4905 22.3891C95.3665 22.6371 95.3076 22.9126 95.3195 23.1896C95.3025 23.4595 95.3514 23.7296 95.4619 23.9765C95.5724 24.2234 95.7411 24.4399 95.9537 24.6072C96.6649 25.0726 97.4698 25.3757 98.3114 25.4951L99.5424 25.7114C100.79 25.9087 101.967 26.4225 102.96 27.2036C103.302 27.5331 103.569 27.932 103.744 28.3734C103.919 28.8148 103.998 29.2885 103.974 29.7628V29.7553ZM81.7477 19.7425H91.6486V21.6451H83.8741V25.6592H90.7607V27.4275H83.8741V31.6803H91.6561V33.5829H81.7477V19.7425Z" fill="#FAF5F5" fill-opacity="0.7"/>
</g>
<defs>
<clipPath id="clip0_324_228">
<rect width="139.776" height="35" fill="white" transform="translate(0.309814 0.343689)"/>
</clipPath>
</defs>
</svg>
